<svg width="40" height="40" viewBox="0 0 40 40" fill="none" xmlns="http://www.w3.org/2000/svg">
<path d="M20 0C8.96 0 0 8.96 0 20C0 31.04 8.96 40 20 40C31.04 40 40 31.04 40 20C40 8.96 31.04 0 20 0ZM20 6C23.32 6 26 8.68 26 12C26 15.32 23.32 18 20 18C16.68 18 14 15.32 14 12C14 8.68 16.68 6 20 6ZM20 34.4C17.6237 34.4 15.2844 33.812 13.1906 32.6883C11.0967 31.5646 9.31355 29.9402 8 27.96C8.06 23.98 16 21.8 20 21.8C23.98 21.8 31.94 23.98 32 27.96C30.6864 29.9402 28.9033 31.5646 26.8094 32.6883C24.7156 33.812 22.3763 34.4 20 34.4Z" fill="#2C2C2C"/>
</svg>
